<svg height="127.89" viewBox="0 0 134.938 33.838" width="510" xmlns="http://www.w3.org/2000/svg"><g fill="#525ddc" fill-rule="evenodd" stroke="#fff" stroke-linecap="round" stroke-width=".25mm"><path d="M19.597 74.453H5.995V22.891h62.052q5.334 0 9.112 3.823a12.921 12.921 0 0 1 3.056 4.75 12.727 12.727 0 0 1 .723 4.317v38.672H67.425v-37.96H50.356v37.96h-13.69v-37.96H19.597v2.933zm125.438 0h-39.383q-5.334 0-9.112-3.823a12.921 12.921 0 0 1-3.055-4.75 12.727 12.727 0 0 1-.724-4.317V41.827h38.672v-5.334H92.76V22.891h39.383q5.334 0 9.112 3.823a12.921 12.921 0 0 1 3.055 4.75 12.727 12.727 0 0 1 .724 4.317zm-35.738-13.602h22.136v-7.112h-25.07v7.112zm83.655 33.96h-31.293v-13.69h30.582v-6.668H166.46a12.472 12.472 0 0 1-9.037-3.704 15.392 15.392 0 0 1-.12-.119 12.996 12.996 0 0 1-2.983-4.463 12.521 12.521 0 0 1-.84-4.605v-25.78a12.366 12.366 0 0 1 3.704-8.948 15.647 15.647 0 0 1 .119-.12 12.746 12.746 0 0 1 5.22-3.24 13.036 13.036 0 0 1 3.937-.583h26.492q5.334 0 9.112 3.823a12.921 12.921 0 0 1 3.055 4.75 12.727 12.727 0 0 1 .723 4.317v46.14q0 5.334-3.778 9.112-3.778 3.778-9.112 3.778zm-22.936-33.96H192.24V36.493H167.082v24.358zm58.762 13.602h-13.601V22.891h13.6zm0-54.762h-13.601V6h13.6zm59.03 54.762h-39.383q-5.334 0-9.112-3.823a12.921 12.921 0 0 1-3.055-4.75 12.727 12.727 0 0 1-.723-4.317V41.827h38.67v-5.334h-38.67V22.891h39.383q5.334 0 9.112 3.823a12.921 12.921 0 0 1 3.055 4.75 12.727 12.727 0 0 1 .723 4.317zM252.07 60.851h22.136v-7.112h-25.07v7.112zm58.94 13.602H297.41V22.891h62.052q5.334 0 9.113 3.823a12.921 12.921 0 0 1 3.055 4.75 12.727 12.727 0 0 1 .723 4.317v38.672h-13.513v-37.96H341.77v37.96h-13.69v-37.96H311.01v2.933zM422.67 94.811h-31.292v-13.69h30.581v-6.668h-25.781a12.472 12.472 0 0 1-9.037-3.704 15.392 15.392 0 0 1-.12-.119 12.996 12.996 0 0 1-2.982-4.463 12.521 12.521 0 0 1-.84-4.605v-25.78a12.366 12.366 0 0 1 3.704-8.948 15.647 15.647 0 0 1 .118-.12 12.746 12.746 0 0 1 5.22-3.24 13.036 13.036 0 0 1 3.937-.583h26.492q5.334 0 9.113 3.823a12.921 12.921 0 0 1 3.055 4.75 12.727 12.727 0 0 1 .723 4.317v46.14q0 5.334-3.778 9.112-3.78 3.778-9.113 3.778zm-22.936-33.96H421.958V36.493H396.799v24.358zm58.763 13.602h-13.602V22.891h13.602zm59.03 0h-39.383q-5.334 0-9.112-3.823a12.921 12.921 0 0 1-3.055-4.75 12.727 12.727 0 0 1-.724-4.317V41.827h38.672v-5.334h-38.672V22.891h39.383q5.334 0 9.112 3.823a12.921 12.921 0 0 1 3.055 4.75 12.727 12.727 0 0 1 .724 4.317zm-35.738-13.602h22.136v-7.112h-25.07v7.112z" transform="matrix(.2633 0 0 .26306 -1.454 8.772)"/></g><g stroke-width=".265"><path d="M129.358.061l-12.462 3.34c-.794.212-1.294.918-1.118 1.576l1.916 7.15c.176.658.963 1.02 1.757.807l12.461-3.34c.794-.212 1.295-.919 1.119-1.576l-1.916-7.15c-.177-.659-.964-1.02-1.757-.807zm-5.878 7.527c.067-.084.198-.109.281-.05l.769.53a.136.136 0 0 1 .036.195c-1.228 1.84-4.963 2.184-5.628-.298-.647-2.416 2.85-3.945 4.701-3.125.076.032.096.06.068.133l-.321.898c-.037.092-.16.149-.262.115-1.435-.467-2.933.39-2.626 1.534.322 1.19 2 1.34 2.982.068zm5.703-1.528c.067-.085.2-.109.282-.051l.768.53a.136.136 0 0 1 .037.196c-1.225 1.842-4.96 2.183-5.625-.3-.648-2.415 2.85-3.944 4.7-3.124.077.032.097.06.068.133l-.321.898c-.036.092-.16.149-.261.115-1.435-.467-2.933.39-2.627 1.534.32 1.191 1.997 1.341 2.98.069z" fill="#f14668" opacity=".998"/><path d="M67.437.194c-3.16 0-5.744 2.143-5.744 4.762 0 1.905.766 2.46 5.17 7.7.287.317.861.317 1.148 0 4.404-5.24 5.17-5.795 5.17-7.7 0-2.62-2.585-4.762-5.744-4.762zm0 8.73c-.529 0-.957-.355-.957-.793 0-.438.428-.794.957-.794.529 0 .957.356.957.794 0 .438-.428.794-.957.794zm.798-2.809v.036c0 .217-.212.393-.474.393h-.488c-.262 0-.474-.176-.474-.393V5.75c0-.226.155-.433.399-.534.915-.38 1.515-.658 1.515-1.054 0-.48-.419-.992-1.196-.992-.537 0-.991.294-1.143.698a.48.48 0 0 1-.459.294h-.504c-.306 0-.53-.237-.461-.485.266-.97 1.316-1.697 2.567-1.697 1.648 0 2.632 1.11 2.632 2.182 0 1.016-.98 1.55-1.914 1.953z" fill="#48c774" opacity=".998"/></g></svg>
