<svg height="92.604164mm" viewBox="0 0 92.604164 92.604164" width="92.604164mm" xmlns="http://www.w3.org/2000/svg"><g transform="translate(-59.340476 -102.19792)"><path d="m142.96696 128.44898h-74.849009c-4.768034 0-8.636425 3.71507-8.636425 8.29411v49.76486c0 4.57906 3.868391 8.29413 8.636425 8.29413h74.849009c4.76803 0 8.63642-3.71507 8.63642-8.29413v-49.76486c0-4.57904-3.86839-8.29411-8.63642-8.29411zm-44.243697 38.65412c.503802-.43196 1.277477-.36283 1.655317.15558l3.50857 4.7864c.30587.4147.26988.96766-.0901 1.33053-9.644013 9.81473-31.091124 5.54672-31.091124-11.73278 0-16.8129 21.896929-20.64893 31.037134-12.11285.37784.34556.44982.5529.17993.9849l-3.14871 5.27024c-.34183.53565-1.115517.69116-1.637311.29374-7.340943-5.52943-17.020938-2.57465-17.020938 5.39117.01825 8.29417 9.194192 12.18205 16.607104 5.63313zm34.257837 0c.5038-.43196 1.27747-.36283 1.65528.15558l3.50859 4.7864c.30586.4147.26988.96766-.09 1.33053-9.62603 9.832-31.07313 5.54672-31.07313-11.73278 0-16.8129 21.89693-20.64893 31.03714-12.11285.37784.34556.44982.5529.17992.9849l-3.1487 5.27024c-.34186.53565-1.11552.69116-1.63731.29374-7.34096-5.52943-17.02095-2.57465-17.02095 5.39117 0 8.29417 9.17621 12.18205 16.58913 5.63313z" fill="#f14668" stroke-width=".176325"/><g fill="#525ddc" fill-rule="evenodd" stroke="#fff" stroke-linecap="round" stroke-width=".25mm" transform="matrix(.48166515 0 0 .4835005 59.568034 102.4265)"><path d="m13.464 51.041h-13.464v-51.04h61.424a12.203 12.203 0 0 1 8.895 3.66 14.965 14.965 0 0 1 .125.124 12.79 12.79 0 0 1 3.024 4.703 12.598 12.598 0 0 1 .716 4.273v38.28h-13.376v-34.672-2.904h-2.904-11.088-2.904v2.904 34.672h-13.552v-34.672-2.904h-2.904-11.088-2.904v2.904z"/><path d="m120.208 71.193h-30.976v-13.552h27.368 2.904v-2.904-3.696h-25.52a12.346 12.346 0 0 1 -8.945-3.666 15.236 15.236 0 0 1 -.119-.118 12.864 12.864 0 0 1 -2.953-4.418 12.395 12.395 0 0 1 -.831-4.558v-25.52a12.241 12.241 0 0 1 3.667-8.857 15.492 15.492 0 0 1 .117-.119q3.784-3.784 9.064-3.784h26.224q5.198 0 8.904 3.668a14.965 14.965 0 0 1 .116.116 12.79 12.79 0 0 1 3.024 4.703 12.598 12.598 0 0 1 .716 4.273v45.672a12.277 12.277 0 0 1 -3.624 8.903 14.882 14.882 0 0 1 -.116.117 12.278 12.278 0 0 1 -8.855 3.739 14.805 14.805 0 0 1 -.165.001zm-22.704-33.616h19.096 2.904v-2.904-18.304-2.904h-2.904-19.096-2.904v2.904 18.304 2.904z"/><path d="m178.552 71.193h-30.976v-13.552h27.368 2.904v-2.904-3.696h-25.52a12.346 12.346 0 0 1 -8.945-3.666 15.236 15.236 0 0 1 -.119-.118 12.864 12.864 0 0 1 -2.953-4.418 12.395 12.395 0 0 1 -.831-4.558v-25.52a12.241 12.241 0 0 1 3.667-8.857 15.492 15.492 0 0 1 .117-.119q3.784-3.784 9.064-3.784h26.224q5.198 0 8.904 3.668a14.965 14.965 0 0 1 .116.116 12.79 12.79 0 0 1 3.024 4.703 12.598 12.598 0 0 1 .716 4.273v45.672a12.277 12.277 0 0 1 -3.624 8.903 14.882 14.882 0 0 1 -.116.117 12.278 12.278 0 0 1 -8.855 3.739 14.805 14.805 0 0 1 -.165.001zm-22.704-33.616h19.096 2.904v-2.904-18.304-2.904h-2.904-19.096-2.904v2.904 18.304 2.904z"/></g></g></svg>
